<svg xmlns="http://www.w3.org/2000/svg" width="200" height="100" viewBox="0 0 200 100"><rect width="100%" height="100%" fill="#FFFFFF"/><path fill="#808080" d="M55.235 37.355h3.32v20.24h-1.93q-.45 0-.75-.15-.3-.14-.58-.49l-10.57-13.5q.08.92.08 1.71v12.43h-3.32v-20.24h1.98q.23 0 .41.02.17.02.31.08.13.06.26.18.12.12.28.32l10.61 13.55q-.04-.49-.07-.97-.03-.47-.03-.88v-12.3Zm13.64 5.65q1.59 0 2.9.52 1.31.52 2.24 1.47.93.95 1.44 2.32.5 1.38.5 3.07 0 1.71-.5 3.08-.51 1.37-1.44 2.34-.93.96-2.24 1.48t-2.9.52q-1.61 0-2.93-.52t-2.25-1.48q-.93-.97-1.44-2.34-.51-1.37-.51-3.08 0-1.69.51-3.07.51-1.37 1.44-2.32.93-.95 2.25-1.47 1.32-.52 2.93-.52Zm0 12.14q1.79 0 2.65-1.2.86-1.21.86-3.53 0-2.33-.86-3.54-.86-1.22-2.65-1.22-1.82 0-2.7 1.22-.87 1.23-.87 3.54t.87 3.52q.88 1.21 2.7 1.21Zm20.86-17.79v20.24h-3.78v-20.24h3.78Zm7.43 20.24h-3.46v-14.36h2.12q.67 0 .88.63l.22 1.06q.38-.42.79-.77.42-.35.89-.6.46-.25 1-.4.54-.15 1.19-.15 1.35 0 2.23.74.87.73 1.31 1.95.33-.71.84-1.23.5-.51 1.1-.83.61-.32 1.29-.47.67-.16 1.36-.16 1.19 0 2.11.37.93.36 1.56 1.06.63.7.96 1.71.33 1.01.33 2.31v9.14h-3.46v-9.14q0-1.37-.6-2.07-.61-.69-1.77-.69-.53 0-.98.18-.46.18-.8.53-.35.34-.54.86-.2.52-.2 1.19v9.14h-3.47v-9.14q0-1.44-.58-2.1-.58-.66-1.7-.66-.76 0-1.41.37-.65.37-1.21 1.02v10.51Zm27.58-3.71v-2.42q-1.5.07-2.52.26t-1.64.48q-.61.29-.88.69-.26.39-.26.85 0 .91.53 1.3.54.39 1.41.39 1.06 0 1.84-.38.78-.39 1.52-1.17Zm-7.31-7.55-.61-1.1q2.47-2.27 5.96-2.27 1.26 0 2.25.41 1 .42 1.68 1.15.69.74 1.05 1.76.35 1.02.35 2.24v9.07h-1.56q-.49 0-.76-.15-.27-.14-.42-.59l-.31-1.04q-.54.49-1.06.86t-1.08.63q-.56.25-1.2.38-.63.13-1.4.13-.91 0-1.68-.24-.77-.25-1.33-.74t-.87-1.21q-.31-.73-.31-1.7 0-.54.18-1.08t.6-1.03q.41-.49 1.07-.93.66-.43 1.62-.75.95-.32 2.23-.53 1.27-.2 2.91-.24v-.84q0-1.44-.62-2.14-.61-.69-1.77-.69-.84 0-1.4.2-.55.19-.97.44-.42.24-.76.44-.35.19-.77.19-.36 0-.61-.18-.25-.19-.41-.45Zm19.18 3.73q.65 0 1.12-.18.48-.17.79-.48.32-.31.48-.74.16-.44.16-.95 0-1.07-.64-1.69-.63-.62-1.91-.62-1.27 0-1.91.62-.64.62-.64 1.69 0 .5.17.93.16.44.47.75.32.32.8.49.48.18 1.11.18Zm3.91 8.17q0-.42-.25-.68-.26-.27-.69-.42-.43-.14-1.01-.21-.59-.07-1.24-.11l-1.34-.06q-.69-.03-1.35-.11-.58.32-.93.75-.36.44-.36 1.01 0 .38.19.71.19.33.6.57.41.23 1.07.37.66.13 1.61.13.97 0 1.67-.15.7-.14 1.15-.4.46-.26.67-.62.21-.36.21-.78Zm-.69-14.51h4.13v1.28q0 .62-.74.76l-1.29.24q.3.74.3 1.62 0 1.07-.43 1.93-.43.86-1.18 1.46-.76.6-1.79.93-1.03.33-2.22.33-.42 0-.81-.04-.39-.04-.77-.11-.67.4-.67.91 0 .43.4.63.4.21 1.05.29.66.08 1.5.1.84.03 1.73.1.88.07 1.72.24.84.18 1.5.55.65.38 1.05 1.03t.4 1.68q0 .95-.47 1.84-.47.9-1.36 1.6-.88.7-2.18 1.13-1.3.42-2.95.42-1.62 0-2.82-.31-1.21-.32-2.01-.84-.8-.53-1.19-1.21-.39-.69-.39-1.43 0-1.01.61-1.69.61-.68 1.67-1.08-.57-.3-.91-.79-.33-.49-.33-1.28 0-.33.12-.67.11-.34.35-.68.23-.33.58-.64.35-.3.82-.53-1.09-.59-1.71-1.57-.62-.98-.62-2.3 0-1.06.42-1.92.43-.86 1.19-1.47t1.81-.93q1.04-.33 2.27-.33.93 0 1.74.19.81.19 1.48.56Zm9.05 5.04h6.52q0-.68-.19-1.27-.19-.6-.57-1.04-.37-.45-.95-.71-.58-.26-1.36-.26-1.49 0-2.35.85-.87.86-1.1 2.43Zm8.82 2.08h-8.89q.08 1.11.39 1.91.31.81.81 1.33.5.53 1.2.79.69.26 1.53.26.84 0 1.45-.2t1.06-.43q.46-.24.8-.44.34-.19.67-.19.43 0 .64.32l1 1.26q-.58.67-1.29 1.12-.72.46-1.49.73-.78.28-1.59.39-.8.11-1.56.11-1.49 0-2.78-.5-1.29-.49-2.24-1.47-.96-.97-1.5-2.41-.55-1.43-.55-3.32 0-1.47.48-2.77.47-1.29 1.36-2.25.89-.96 2.17-1.52 1.28-.56 2.89-.56 1.36 0 2.51.44 1.15.43 1.98 1.26.82.84 1.29 2.05.47 1.21.47 2.76 0 .79-.17 1.06t-.64.27Z"/></svg>